# xmcd
# 
# Track frame offsets:
#     150
#     18670
#     35820
#     62095
#     90750
#     121192
# 
# Disc length: 2216
# 
# Revision: 1
# Processed by: cddbd v1.5.2PL0 Copyright (c) Steve Scherf et al.
# Submitted via: fre:ac v1.0.31
# 
DISCID=4408a606
DTITLE=Chaka Khan - Never Miss The Water
DYEAR=0
DGENRE=
TTITLE0=Never Miss The Water [Radio Edit]
TTITLE1=Never Miss The Water [Stylus' ReMix Radio Edit]
TTITLE2=Never Miss The Water [Stylus' Street Mix]
TTITLE3=Never Miss The Water [Stylus' ReMix]
TTITLE4=Never Miss The Water [Stylus' Club Anthem]
TTITLE5=Never Miss The Water [Franktified Club Mix]
EXTD=
EXTT0=
EXTT1=
EXTT2=
EXTT3=
EXTT4=
EXTT5=
PLAYORDER=
